<svg xmlns="http://www.w3.org/2000/svg" viewBox="0 0 750 500"><g id="freepik--Device--inject-180"><rect x="252.94" y="41.39" width="217.39" height="426.82" rx="41.37" style="fill:#e0e0e0"></rect><path d="M429,468.21l3.14-.19a29.46,29.46,0,0,0,3.83-.49l1.19-.18c.41-.07.82-.2,1.25-.31l2.77-.71a42.72,42.72,0,0,0,13.17-6.94l.9-.68.84-.76,1.74-1.58c.6-.53,1.1-1.18,1.66-1.77s1.16-1.2,1.66-1.89a41.39,41.39,0,0,0,3-4.33c.44-.78,1-1.53,1.38-2.38s.81-1.7,1.23-2.56.69-1.81,1-2.72l.51-1.4c.17-.47.26-1,.4-1.46.24-1,.53-2,.74-3s.31-2.07.47-3.12c.44-4.23.28-8.73.31-13.41q0-14.05,0-30.49c0-21.88,0-46.79,0-74.33,0-55.07,0-120.65-.06-193.46V85.41c0-2.35-.09-4.68-.24-7A41.49,41.49,0,0,0,466,64.88a41,41,0,0,0-20.14-19.61,41.41,41.41,0,0,0-14.05-3.49c-2.43-.17-4.89-.14-7.36-.14H294.34a41.07,41.07,0,0,0-41,38.38c-.18,2.53-.13,5.09-.14,7.64v52.78c0,39.63,0,77.85,0,114.26s0,71,0,103.4q0,24.28,0,46.86,0,11.26,0,22.08c0,.9.09,1.79.13,2.68l.07,1.34.2,1.31c.13.88.27,1.75.4,2.63s.43,1.7.64,2.55a41.79,41.79,0,0,0,1.65,5c.31.81.73,1.57,1.09,2.35a21.52,21.52,0,0,0,1.18,2.29,41.12,41.12,0,0,0,13.69,14.39A41.62,41.62,0,0,0,290,467.81c1.54.09,3.07.18,4.59.23H325l56.12.05,35.46,0,9.22,0,3.14,0-3.14,0-9.22,0-35.46.05-56.12,0H294.6c-1.53-.05-3.07-.14-4.63-.23a42.05,42.05,0,0,1-18-6.29,41.58,41.58,0,0,1-13.82-14.51A21.74,21.74,0,0,1,257,445c-.37-.79-.79-1.56-1.11-2.38a40.68,40.68,0,0,1-1.66-5c-.22-.86-.46-1.71-.65-2.58s-.27-1.76-.41-2.65l-.2-1.33-.07-1.34c-.05-.9-.09-1.8-.14-2.7q0-10.81,0-22.09,0-22.55,0-46.86c0-32.38,0-67,0-103.4s0-74.63,0-114.26q0-14.86,0-30V87.67c0-2.55,0-5.1.14-7.68a41.62,41.62,0,0,1,41.52-38.86H424.4c2.47,0,4.92,0,7.39.14A42.18,42.18,0,0,1,446,44.81a41.85,41.85,0,0,1,24.32,33.53c.15,2.36.28,4.73.24,7.07v7q0,14,0,27.64c0,72.81,0,138.39-.05,193.46,0,27.54,0,52.45,0,74.33q0,16.41,0,30.49c0,4.68.12,9.17-.34,13.44-.16,1.06-.32,2.1-.48,3.14s-.5,2-.74,3c-.14.49-.24,1-.4,1.46s-.35.94-.52,1.41c-.37.92-.63,1.87-1.07,2.73l-1.24,2.57c-.39.85-.94,1.61-1.39,2.39a41.66,41.66,0,0,1-3,4.34c-.51.69-1.13,1.27-1.67,1.9s-1.07,1.24-1.68,1.77l-1.74,1.58-.85.77-.9.67a43,43,0,0,1-13.24,6.92l-2.78.7a12.54,12.54,0,0,1-1.25.3l-1.19.18a29.05,29.05,0,0,1-3.84.46Z" style="fill:#263238"></path><rect x="262.89" y="51.65" width="196.02" height="403.07" rx="33.43" style="fill:#fff"></rect><g style="opacity:0.30000000000000004"><path d="M470.33,432.3l-21.47-54.87a2.23,2.23,0,0,1,2.07-3h19.4Z"></path></g><path d="M432.1,155.12a21.55,21.55,0,0,0,3.9-.64,14.53,14.53,0,0,0,8.64-6.83,14,14,0,0,0,1.44-3.58,14.72,14.72,0,0,0,.37-2c0-.71.1-1.42.08-2.18,0-1.51,0-3.09,0-4.72s0-3.36-.09-5.07a14.49,14.49,0,0,0-5.06-9.52,13.86,13.86,0,0,0-5.27-2.8,20.52,20.52,0,0,0-6.33-.56l-138.57.15a14.18,14.18,0,0,0-13.88,11.26,23.74,23.74,0,0,0-.3,4.8v4.89a24.66,24.66,0,0,0,.24,4.74,14.83,14.83,0,0,0,1.56,4.34,14.31,14.31,0,0,0,6.66,6,14.88,14.88,0,0,0,4.34,1.14c1.47.12,3.06.06,4.58.08h18l62.3.12,42,.16,11.41.1,3,0,.76,0,.26,0-.26,0-.76,0-3,0-11.41.1-42,.16-62.3.11-18,0c-1.54,0-3.05,0-4.67-.07a16.1,16.1,0,0,1-4.66-1.21,15.36,15.36,0,0,1-7.14-6.48,15.67,15.67,0,0,1-1.68-4.66l-.18-1.24-.07-1.25c0-.82,0-1.62,0-2.43v-4.89a23.74,23.74,0,0,1,.32-5,15.21,15.21,0,0,1,14.89-12.09l138.57.15c1.11,0,2.19,0,3.3.06a15.06,15.06,0,0,1,3.23.56,14.67,14.67,0,0,1,5.5,3A15.08,15.08,0,0,1,447,130c.12,1.81,0,3.48.05,5.13s0,3.21,0,4.72a15,15,0,0,1-6.55,12.83,14.52,14.52,0,0,1-4.42,2l-.91.22c-.28,0-.55.08-.79.11a8.1,8.1,0,0,1-1.25.12h-.76A.67.67,0,0,1,432.1,155.12Z" style="fill:#352323"></path><path d="M412.86,83.81s-.33,0-.87.21a3.72,3.72,0,0,0-1.92,1.35,3.51,3.51,0,0,0-.45,3.29,3.47,3.47,0,0,0,6.49,0,3.51,3.51,0,0,0-.46-3.29A3.67,3.67,0,0,0,413.74,84c-.55-.16-.88-.17-.88-.21a1.69,1.69,0,0,1,.93,0,3.66,3.66,0,0,1,2.15,1.33,3.85,3.85,0,0,1,.62,3.68,3.92,3.92,0,0,1-7.39,0,3.82,3.82,0,0,1,.61-3.68,3.68,3.68,0,0,1,2.16-1.33A1.66,1.66,0,0,1,412.86,83.81Z" style="fill:#352323"></path><path d="M423.44,83.81s-.33,0-.88.21a3.67,3.67,0,0,0-1.91,1.35,3.47,3.47,0,0,0,2.79,5.54,3.48,3.48,0,0,0,3.24-2.25,3.51,3.51,0,0,0-.45-3.29A3.72,3.72,0,0,0,424.31,84c-.54-.16-.87-.17-.87-.21a1.66,1.66,0,0,1,.92,0,3.68,3.68,0,0,1,2.16,1.33,3.82,3.82,0,0,1,.61,3.68,3.92,3.92,0,0,1-7.39,0,3.85,3.85,0,0,1,.62-3.68,3.66,3.66,0,0,1,2.15-1.33A1.69,1.69,0,0,1,423.44,83.81Z" style="fill:#352323"></path><path d="M434,83.81s-.32,0-.87.21a3.67,3.67,0,0,0-1.91,1.35,3.47,3.47,0,1,0,5.57,0A3.67,3.67,0,0,0,434.89,84c-.55-.16-.88-.17-.88-.21a1.69,1.69,0,0,1,.93,0,3.71,3.71,0,0,1,2.16,1.33,3.85,3.85,0,0,1,.61,3.68,3.92,3.92,0,0,1-7.39,0,3.85,3.85,0,0,1,.61-3.68,3.71,3.71,0,0,1,2.16-1.33A1.65,1.65,0,0,1,434,83.81Z" style="fill:#352323"></path><path d="M287.78,82l-4.45,4.58a1.26,1.26,0,0,0,0,1.77l4.45,3.68a1.29,1.29,0,0,0,1.77,0,1.27,1.27,0,0,0,0-1.77l-4.46-3.68v1.77l4.46-4.58A1.25,1.25,0,0,0,287.78,82Z" style="fill:#352323"></path><path d="M299.46,135.55a3.32,3.32,0,1,1-2.73-3.27,3.35,3.35,0,0,1,2.73,3.27.63.63,0,0,0,1.25,0,4.63,4.63,0,0,0-3-4.28,4.57,4.57,0,0,0-5.51,6.62,4.57,4.57,0,0,0,8.5-2.34A.63.63,0,0,0,299.46,135.55Z" style="fill:#352323"></path><path d="M298.38,138.88l1.49,1.65.22.24a.63.63,0,0,0,.88,0,.64.64,0,0,0,0-.89l-1.49-1.65-.21-.23a.63.63,0,0,0-.89,0,.64.64,0,0,0,0,.88Z" style="fill:#352323"></path><path d="M295.92,188.88a18,18,0,0,0,2.47-.65,7.45,7.45,0,0,0,2.43-1.62,7,7,0,0,0-2.11-11.46,6.92,6.92,0,0,0-2.76-.57h-9.81A6.94,6.94,0,0,0,282,187a7.28,7.28,0,0,0,2.11,1.12,8,8,0,0,0,2.19.35c3,0,5.4.1,7.07.16a12.15,12.15,0,0,1,2.6.21,12.7,12.7,0,0,1-2.6.2c-1.67.06-4.08.12-7.07.16a8.32,8.32,0,0,1-2.43-.31,8.13,8.13,0,0,1-2.39-1.2,7.86,7.86,0,0,1,4.71-14.17H296a7.86,7.86,0,0,1,7.18,4.87,7.77,7.77,0,0,1,.27,5.05,7.64,7.64,0,0,1-2.18,3.53,7.5,7.5,0,0,1-2.7,1.58,7,7,0,0,1-1.93.34A1.82,1.82,0,0,1,295.92,188.88Z" style="fill:#352323"></path><path d="M439,188.88a18,18,0,0,0,2.47-.65,7.58,7.58,0,0,0,2.44-1.62,7.11,7.11,0,0,0,1.51-7.83,7,7,0,0,0-3.63-3.63,6.92,6.92,0,0,0-2.76-.57h-9.81a6.93,6.93,0,0,0-6.82,8A7,7,0,0,0,425,187a7.54,7.54,0,0,0,2.11,1.12,8.06,8.06,0,0,0,2.19.35c3,0,5.41.1,7.08.16a12,12,0,0,1,2.59.21,12.53,12.53,0,0,1-2.59.2c-1.67.06-4.09.12-7.08.16a7.61,7.61,0,0,1-4.82-1.51,7.86,7.86,0,0,1,4.71-14.17H439a7.84,7.84,0,0,1,7.18,4.87,7.77,7.77,0,0,1,.27,5.05,7.53,7.53,0,0,1-4.88,5.11,7,7,0,0,1-1.93.34A1.82,1.82,0,0,1,439,188.88Z" style="fill:#352323"></path><path d="M360.68,188.88c0-.06.45,0,1.26-.23a7.42,7.42,0,0,0,3.23-1.56,7.13,7.13,0,0,0,2-8.32,7.11,7.11,0,0,0-2.43-3,7,7,0,0,0-4-1.28l-4.89,0-10.81.05-24.75,0a7,7,0,0,0-5.3,2.49,6.9,6.9,0,0,0-1.49,5.5,6.83,6.83,0,0,0,3,4.64,6.62,6.62,0,0,0,2.54,1,7.62,7.62,0,0,0,1.35.13h1.44l20.22.11,13.63.16,3.7.1a5.33,5.33,0,0,1,1.3.11,6.65,6.65,0,0,1-1.3.1l-3.7.1-13.63.16-20.22.12h-1.44a10,10,0,0,1-1.53-.13,7.9,7.9,0,0,1,1.45-15.67l24.75,0,10.81.05,4.9,0a7.87,7.87,0,0,1,4.43,1.49,7.76,7.76,0,0,1,2.61,3.35,7.85,7.85,0,0,1,.51,3.74,7.63,7.63,0,0,1-2.89,5.14,7.13,7.13,0,0,1-3.45,1.46,4.44,4.44,0,0,1-1,0A.94.94,0,0,1,360.68,188.88Z" style="fill:#352323"></path><path d="M407.07,188.88a4.48,4.48,0,0,1,1-.18,7.43,7.43,0,0,0,2.58-1,7.31,7.31,0,0,0,2.84-3.17,7.14,7.14,0,0,0,.21-5.5,7,7,0,0,0-6.71-4.54h-2l-4.24,0-18.88,0a7,7,0,0,0-4.27,1.49,6.92,6.92,0,0,0-2.13,7.94,7,7,0,0,0,2.56,3.2,7.86,7.86,0,0,0,1.8.87,7.62,7.62,0,0,0,1.93.31l4,0,7.18.07c4.39,0,7.94.1,10.39.16,1.23,0,2.18.07,2.83.1a3.08,3.08,0,0,1,1,.11,3.83,3.83,0,0,1-1,.1c-.65,0-1.6.07-2.83.1-2.45.06-6,.12-10.39.16l-7.18.07-4,0a7.82,7.82,0,0,1-4.26-1.3,8,8,0,0,1-2.95-3.63,7.92,7.92,0,0,1,2.42-9.12,8,8,0,0,1,4.91-1.72l18.88,0,4.24,0h2a8.23,8.23,0,0,1,2.05.27,7.74,7.74,0,0,1,5,10.93,7.56,7.56,0,0,1-3.17,3.26,6.89,6.89,0,0,1-2.75.82A3.19,3.19,0,0,1,407.07,188.88Z" style="fill:#352323"></path><path d="M296.58,216.38l-.32,0-.94,0a13.49,13.49,0,0,0-3.6.62,12.4,12.4,0,0,0-5,3.17,12,12,0,0,0-3.2,7.24c0,12.33.07,30.16.12,52.19q0,4.14,0,8.46v4.37a27.86,27.86,0,0,0,.19,4.4,12.74,12.74,0,0,0,4.25,7.63,12.93,12.93,0,0,0,8.48,3.15l41.38-.05,94.81,0a12.76,12.76,0,0,0,10.44-5.09,12.34,12.34,0,0,0,2.36-5.41,41.79,41.79,0,0,0,.21-6.06q0-12.28,0-24.19t0-23.35c0-3.82,0-7.59,0-11.32,0-.93,0-1.88,0-2.78a13.72,13.72,0,0,0-.33-2.65,12.62,12.62,0,0,0-2.23-4.76,12.75,12.75,0,0,0-8.77-5,24.72,24.72,0,0,0-2.6-.09h-7.85l-20.09,0-36.05-.06-52.21-.16-14.19-.1-3.69-.05-.94,0-.32,0a1.07,1.07,0,0,1,.32,0l.94,0,3.69-.05,14.19-.1,52.21-.17L404,216l20.09,0h7.85a24.71,24.71,0,0,1,2.7.08,13.73,13.73,0,0,1,12.2,13.36c0,.94,0,1.86,0,2.8q0,5.59,0,11.32,0,11.45,0,23.35t0,24.19v3.08a16.24,16.24,0,0,1-.23,3.16,13.52,13.52,0,0,1-2.55,5.86,13.83,13.83,0,0,1-11.27,5.5l-94.81,0-41.38-.05a13.8,13.8,0,0,1-9-3.39,13.45,13.45,0,0,1-4.49-8.13,14.84,14.84,0,0,1-.19-2.29c0-.75,0-1.49,0-2.23v-4.37q0-4.32,0-8.46c.07-22.05.05-39.86.22-52.22a12.2,12.2,0,0,1,8.49-10.58,13.15,13.15,0,0,1,3.66-.53l.94,0A1.14,1.14,0,0,1,296.58,216.38Z" style="fill:#352323"></path><path d="M287.64,222.59c.13-.25,33.9,17.83,75.41,40.38s75.07,41,74.93,41.31-33.9-17.83-75.42-40.39S287.5,222.84,287.64,222.59Z" style="fill:#352323"></path><path d="M439.41,225.34c.13.26-34.06,17.52-76.36,38.56s-76.72,37.88-76.84,37.62S320.27,284,362.58,263,439.29,225.08,439.41,225.34Z" style="fill:#352323"></path><path d="M327.64,341a8,8,0,0,1,1-.21,5.43,5.43,0,0,0,2.49-1.34,5.3,5.3,0,0,0,1.68-4,5.21,5.21,0,0,0-3.07-4.58,5.49,5.49,0,0,0-1.58-.41c-.54,0-1.18,0-1.8,0l-3.9,0-8.61.05-19.73,0a5,5,0,0,0-4.74,6.4,5,5,0,0,0,2.88,3.15,5.34,5.34,0,0,0,2.11.38h2.3l16.12.11c4.58,0,8.29.1,10.86.16,1.28,0,2.28.07,2.95.1a3.34,3.34,0,0,1,1,.11,4.15,4.15,0,0,1-1,.1c-.67,0-1.67.07-2.95.1-2.57.06-6.28.12-10.86.16l-16.12.11h-2.3a6.23,6.23,0,0,1-2.49-.43,6,6,0,0,1,2.24-11.51l19.73,0,8.61,0,3.9,0c.64,0,1.22,0,1.88,0a6.24,6.24,0,0,1,1.8.51,5.8,5.8,0,0,1,3.35,5.24,5.66,5.66,0,0,1-2,4.3,5.28,5.28,0,0,1-2.72,1.25,4.85,4.85,0,0,1-.78,0A.72.72,0,0,1,327.64,341Z" style="fill:#352323"></path><path d="M351.07,424.87a22.11,22.11,0,0,0,2.68-.44,11.28,11.28,0,0,0,6.26-4.29,10.86,10.86,0,0,0,2-5.12,24,24,0,0,0,.09-3.21c0-1.12,0-2.29,0-3.51,0-4.84-.05-10.36-.08-16.46s0-12.78-.06-19.95c0-.9,0-1.8,0-2.71s0-1.85-.05-2.72a10.9,10.9,0,0,0-11.46-9.91l-52.47,0a12.06,12.06,0,0,0-3.27.51,11.37,11.37,0,0,0-2.94,1.46,10.78,10.78,0,0,0-3.92,5.1c-.85,2-.65,4.23-.68,6.48s0,4.45,0,6.64c0,8.78,0,17.25,0,25.31v11.78A10.88,10.88,0,0,0,297,424.4c.82.06,1.68.06,2.53.06H302l9.57,0,28.9.17,7.85.1,2,.05a3.81,3.81,0,0,1,.7.05,3.2,3.2,0,0,1-.7.06l-2,.05-7.85.1-28.9.16-9.57,0h-2.52c-.85,0-1.7,0-2.61,0a11.78,11.78,0,0,1-10.68-11.35c0-3.82,0-7.76,0-11.8,0-8.06,0-16.53,0-25.31v-6.64c0-1.12,0-2.2,0-3.38a10.84,10.84,0,0,1,.71-3.46,11.77,11.77,0,0,1,4.29-5.59,12.33,12.33,0,0,1,3.23-1.6,12.74,12.74,0,0,1,3.58-.56l52.47,0a15.43,15.43,0,0,1,3.09.27,12.23,12.23,0,0,1,2.9,1,12,12,0,0,1,4.46,4,11.88,11.88,0,0,1,1.89,5.49c.07,1,.05,1.88.05,2.8s0,1.81,0,2.71c0,7.17,0,13.85-.06,19.95s-.06,11.62-.08,16.46c0,1.22,0,2.39,0,3.51a25.27,25.27,0,0,1-.13,3.28,11.44,11.44,0,0,1-2.19,5.29,11.29,11.29,0,0,1-6.54,4.25,8.8,8.8,0,0,1-2,.26A2.83,2.83,0,0,1,351.07,424.87Z" style="fill:#352323"></path><path d="M366.73,396.3a28.83,28.83,0,0,1-2.71-2.59c-1.71-1.68-4.18-4.16-7.48-6.88a12.32,12.32,0,0,0-6.13-2.83,11.55,11.55,0,0,0-3.76,0,10.27,10.27,0,0,0-3.67,1.46,20.57,20.57,0,0,0-6,6.28l-2.61,3.94a21.12,21.12,0,0,1-3.16,3.86,6.41,6.41,0,0,1-4.81,1.82A7.49,7.49,0,0,1,322,399c-2.28-2.22-3.9-4.81-6.23-6.21A6.93,6.93,0,0,0,314,392a6,6,0,0,0-1.89-.14,8.37,8.37,0,0,0-3.52,1.15,16.66,16.66,0,0,0-4.82,4.83l-5.83,8.36c-.69,1-1.24,1.75-1.62,2.25a3.75,3.75,0,0,1-.63.75,3.52,3.52,0,0,1,.45-.86c.33-.55.82-1.34,1.47-2.36,1.29-2,3.16-5,5.56-8.57a17.07,17.07,0,0,1,5-5.14A9.14,9.14,0,0,1,312,391a7,7,0,0,1,2.18.13,7.88,7.88,0,0,1,2.08.86c2.61,1.57,4.27,4.23,6.44,6.3a6.5,6.5,0,0,0,3.79,2,5.36,5.36,0,0,0,4-1.57,20.42,20.42,0,0,0,3-3.66l2.62-3.93a21.27,21.27,0,0,1,6.31-6.52,11,11,0,0,1,4-1.55,12.23,12.23,0,0,1,4.06.09,13.06,13.06,0,0,1,6.45,3.11,86,86,0,0,1,7.31,7.17c.81.89,1.42,1.6,1.83,2.09A4.28,4.28,0,0,1,366.73,396.3Z" style="fill:#352323"></path><path d="M334.55,375.93c-.1,0-.1-.66-.43-1.77a7.46,7.46,0,0,0-2.74-3.85,6.88,6.88,0,0,0-3-1.26,7.18,7.18,0,0,0-3.67.34,7,7,0,0,0-4.55,6.54,7.05,7.05,0,0,0,1.34,4.1,7,7,0,0,0,3.21,2.44,7.06,7.06,0,0,0,6.65-.91,7.44,7.44,0,0,0,2.74-3.86c.33-1.11.33-1.77.43-1.77a3.89,3.89,0,0,1,0,1.87,7.42,7.42,0,0,1-2.68,4.34,7.63,7.63,0,0,1-3.27,1.53,7.83,7.83,0,0,1-4.15-.3,7.69,7.69,0,0,1-3.71-2.74,7.88,7.88,0,0,1,7.86-12.43,7.74,7.74,0,0,1,3.27,1.52,7.43,7.43,0,0,1,2.68,4.35A3.82,3.82,0,0,1,334.55,375.93Z" style="fill:#352323"></path><path d="M439.46,412.28c-.09,0-.1-.66-.43-1.77a7.41,7.41,0,0,0-2.73-3.86,7.22,7.22,0,0,0-3-1.26,7,7,0,0,0-3.66.35,7,7,0,0,0,0,13.08,7.11,7.11,0,0,0,6.65-.92,7.43,7.43,0,0,0,2.73-3.85c.33-1.11.34-1.78.43-1.77a3.53,3.53,0,0,1,0,1.86,7.43,7.43,0,0,1-2.68,4.35,7.63,7.63,0,0,1-3.27,1.52,7.85,7.85,0,0,1-7.86-3,7.86,7.86,0,0,1,0-9.4,7.74,7.74,0,0,1,3.71-2.74,7.83,7.83,0,0,1,4.15-.3,7.52,7.52,0,0,1,3.27,1.53,7.42,7.42,0,0,1,2.68,4.34A3.59,3.59,0,0,1,439.46,412.28Z" style="fill:#352323"></path><path d="M418.6,412.28c-.09,0-.1-.66-.43-1.77a7.41,7.41,0,0,0-2.73-3.86,7.17,7.17,0,0,0-3-1.26,7,7,0,0,0-3.66.35,7,7,0,0,0,0,13.08,7,7,0,0,0,3.66.34,6.92,6.92,0,0,0,3-1.26,7.43,7.43,0,0,0,2.73-3.85c.33-1.11.34-1.78.43-1.77a3.58,3.58,0,0,1,0,1.86,7.43,7.43,0,0,1-2.68,4.35,7.72,7.72,0,0,1-3.28,1.52,7.85,7.85,0,0,1-7.86-3,8,8,0,0,1-1.55-4.7,7.85,7.85,0,0,1,1.56-4.7,7.67,7.67,0,0,1,3.7-2.74,7.83,7.83,0,0,1,4.15-.3,7.62,7.62,0,0,1,3.28,1.53,7.42,7.42,0,0,1,2.68,4.34A3.64,3.64,0,0,1,418.6,412.28Z" style="fill:#352323"></path><path d="M395.41,412.28c-.1,0-.1-.66-.43-1.77a7.5,7.5,0,0,0-2.74-3.86,7.06,7.06,0,0,0-6.65-.91,6.93,6.93,0,0,0-3.21,2.44,6.93,6.93,0,0,0,0,8.19,6.88,6.88,0,0,0,3.21,2.45,7.08,7.08,0,0,0,3.67.34,6.88,6.88,0,0,0,3-1.26,7.52,7.52,0,0,0,2.74-3.85c.33-1.11.33-1.78.43-1.77a3.82,3.82,0,0,1,0,1.86,7.43,7.43,0,0,1-2.68,4.35,7.74,7.74,0,0,1-3.27,1.52,7.88,7.88,0,0,1-7.86-12.43,7.71,7.71,0,0,1,3.7-2.74,7.87,7.87,0,0,1,4.16-.3,7.63,7.63,0,0,1,3.27,1.53,7.42,7.42,0,0,1,2.68,4.34A3.89,3.89,0,0,1,395.41,412.28Z" style="fill:#352323"></path><path d="M436.24,379.64a5.51,5.51,0,0,0,1.33-.38,3.41,3.41,0,0,0,2-3.09,3.29,3.29,0,0,0-1.12-2.42,3.23,3.23,0,0,0-1.36-.71,3.59,3.59,0,0,0-.81-.09h-.92l-8.5.08c-12.58.09-30,.15-49.17.15a3,3,0,0,0-.32,5.92c1.05,0,2.27,0,3.38,0l13.05,0,22.11.11,14.91.17,4.05.1a7.83,7.83,0,0,1,1.41.1,7.13,7.13,0,0,1-1.41.11l-4.05.1-14.91.16-22.11.11-13.05,0c-1.16,0-2.23,0-3.48,0a4,4,0,0,1,.42-8c19.2,0,36.59.05,49.17.15l8.5.08h.92a3.65,3.65,0,0,1,.37,7.29C436.36,379.67,436.24,379.66,436.24,379.64Z" style="fill:#352323"></path><path d="M436.24,394.1a7,7,0,0,0,1.33-.38,3.54,3.54,0,0,0,1.27-1,3.4,3.4,0,0,0,.69-2.07,3.29,3.29,0,0,0-1.12-2.42,3.35,3.35,0,0,0-2.17-.8h-.92l-8.5.08c-12.58.09-30,.15-49.17.15a3,3,0,0,0-2.54,1.43A3,3,0,0,0,375,392a3,3,0,0,0,2.33,1.61c1.05,0,2.27,0,3.38,0l13.05,0,22.11.11,14.91.16,4.05.1a6.27,6.27,0,0,1,1.41.11,7.83,7.83,0,0,1-1.41.1l-4.05.1-14.91.16-22.11.12-13.05,0c-1.16,0-2.23,0-3.48,0a4,4,0,0,1,.42-8c19.2,0,36.59.06,49.17.15l8.5.08h.92a3.68,3.68,0,0,1,.94.13,3.57,3.57,0,0,1,1.56.87,3.67,3.67,0,0,1,.35,5,3.61,3.61,0,0,1-1.43,1,3.68,3.68,0,0,1-1.05.22A1.15,1.15,0,0,1,436.24,394.1Z" style="fill:#352323"></path><path d="M435.41,335.57c0,.29-17.91.52-40,.52s-40-.23-40-.52,17.91-.52,40-.52S435.41,335.28,435.41,335.57Z" style="fill:#352323"></path></g><g id="freepik--character-2--inject-180"><circle cx="611.41" cy="342.22" r="100.36" transform="translate(-62.91 532.56) rotate(-45)" style="fill:#f5f5f5"></circle><path d="M511,342.22s0-.55,0-1.63c0-.54,0-1.21,0-2s0-1.73.12-2.77a98.5,98.5,0,0,1,6.85-30.8,97.2,97.2,0,0,1,7-14.18,101.8,101.8,0,0,1,25.49-28.62,100.27,100.27,0,0,1,42.33-18.84,100.58,100.58,0,0,1,25.93-1.46,101.73,101.73,0,0,1,13.49,1.88,108.63,108.63,0,0,1,13.45,3.82,100.87,100.87,0,0,1,46.8,35.07,98.23,98.23,0,0,1,8.21,13.2c.58,1.17,1.23,2.31,1.75,3.52l1.63,3.6c1,2.45,2,4.9,2.78,7.43A98.34,98.34,0,0,1,710.71,326a100.44,100.44,0,0,1,0,32.4A97.55,97.55,0,0,1,706.88,374c-.8,2.53-1.8,5-2.77,7.44s-2.14,4.81-3.38,7.11a99.36,99.36,0,0,1-8.21,13.21,100.85,100.85,0,0,1-46.81,35.08,108.63,108.63,0,0,1-13.45,3.82,101.91,101.91,0,0,1-39.43.42,100.15,100.15,0,0,1-42.32-18.85A101.49,101.49,0,0,1,525,393.59a96.71,96.71,0,0,1-7-14.18,98.52,98.52,0,0,1-6.85-30.79c-.09-1-.1-2-.12-2.77s0-1.46,0-2c0-1.08,0-1.63,0-1.63s0,.55.07,1.63c0,.54,0,1.21.06,2s.05,1.72.15,2.77a98.89,98.89,0,0,0,7,30.7,96.41,96.41,0,0,0,7,14.12,101.43,101.43,0,0,0,25.46,28.48,100.06,100.06,0,0,0,42.18,18.72,100.27,100.27,0,0,0,25.83,1.42,99.1,99.1,0,0,0,13.42-1.88,106.07,106.07,0,0,0,13.39-3.82,100.34,100.34,0,0,0,46.56-34.92,98.91,98.91,0,0,0,8.16-13.14c1.23-2.3,2.28-4.69,3.36-7.08s2-4.88,2.76-7.4a97.72,97.72,0,0,0,3.81-15.5,107.83,107.83,0,0,0,1.31-16.11,109.42,109.42,0,0,0-1.31-16.12,97.22,97.22,0,0,0-3.81-15.48c-.8-2.53-1.8-5-2.77-7.4-.54-1.2-1.07-2.39-1.61-3.58s-1.17-2.33-1.75-3.5A98.91,98.91,0,0,0,692.1,283a100.31,100.31,0,0,0-46.55-34.91,105.6,105.6,0,0,0-13.39-3.82,101.71,101.71,0,0,0-39.24-.46,100.22,100.22,0,0,0-42.18,18.71A101.48,101.48,0,0,0,525.27,291a96,96,0,0,0-7,14.13,98.7,98.7,0,0,0-7,30.7c-.1,1.05-.13,2-.15,2.77s0,1.46-.06,2C511.07,341.67,511,342.22,511,342.22Z" style="fill:#263238"></path><path d="M569.82,358.6l-5.08.22-18.32,39.76-29,14.44,1.38,14.91s35.67-6.58,44.56-11.55,20.23-37.32,20.23-37.32c.06.23-12-20.46-12-20.46" style="fill:#ffbf9d"></path><path d="M519.13,394.94l-3.71-3.9a4.23,4.23,0,0,0-2.4-.67l-11.77.36a7.36,7.36,0,0,0-5.44,3.3l-4.28,7.28s-2.88,5-2.51,6.19A2.15,2.15,0,0,0,491.5,409s.41,2.3,1.18,2.77a3.61,3.61,0,0,0,2.86.18,2.42,2.42,0,0,0,2.32,1.4,2.31,2.31,0,0,0,.61-.11c1.39-.42,2-3.13,2-3.13l6-1.1s8.57,5.73,11.59,9.48,10.93.89,10.93.89l3-14.15Z" style="fill:#ffbf9d"></path><path d="M510.46,396.63a8.92,8.92,0,0,1-2.57.43c-1.62.18-3.92.25-6.5.58l.28-.2a24.43,24.43,0,0,1-1.53,2.81,31.3,31.3,0,0,1-5.66,6.7,10.85,10.85,0,0,1-3,2.11c-.07-.1,1-.93,2.59-2.5a38.42,38.42,0,0,0,5.39-6.7,26.78,26.78,0,0,0,1.51-2.72l.08-.19.2,0c2.65-.3,4.94-.27,6.56-.32A12.41,12.41,0,0,1,510.46,396.63Z" style="fill:#ff9a6c"></path><path d="M510.73,402.25a5.84,5.84,0,0,1-2.21.59,17.2,17.2,0,0,1-5.76-.2l.42-.24a20.64,20.64,0,0,1-.86,2.13,17.93,17.93,0,0,1-4.42,5.81,7.56,7.56,0,0,1-2.53,1.66c-.06-.1.87-.76,2.17-2a20.79,20.79,0,0,0,4.11-5.75,20,20,0,0,0,.84-2l.12-.31.3.07C507.32,402.91,510.71,402,510.73,402.25Z" style="fill:#ff9a6c"></path><path d="M525.67,405.15l-10.49-4.88a11.19,11.19,0,0,0-4.57-1.36,10.92,10.92,0,0,0-4.86,1.62l-5.65,2.92a1.38,1.38,0,0,0-.75.67,1.29,1.29,0,0,0,.49,1.2,8.31,8.31,0,0,0,10.93.44,22.48,22.48,0,0,0,3.54,7c1.7,2,4.33,3.42,6.92,2.95" style="fill:#ffbf9d"></path><path d="M521.23,415.7s-.1.05-.29.09a3.85,3.85,0,0,1-.85.1,6.75,6.75,0,0,1-3.16-.77,9.83,9.83,0,0,1-3.72-3.39,27.62,27.62,0,0,1-2.75-5.85l.53.13a8.33,8.33,0,0,1-6.11,1.91,8.72,8.72,0,0,1-3.41-.95,8.17,8.17,0,0,1-1.51-1.05,4.45,4.45,0,0,1-.68-.69,1.38,1.38,0,0,1-.3-1.14,1.32,1.32,0,0,1,.63-.79c.25-.15.46-.25.68-.37l1.31-.67,2.56-1.32a23.28,23.28,0,0,1,5.06-2.21,7.82,7.82,0,0,1,5,.76c1.42.65,2.69,1.28,3.88,1.84l5.59,2.73a13.22,13.22,0,0,1,2,1.09,12.64,12.64,0,0,1-2.12-.83l-5.69-2.51L514,400.05a7.2,7.2,0,0,0-4.59-.65,23.45,23.45,0,0,0-4.87,2.18l-2.55,1.33-1.31.68c-.45.23-.91.45-.93.68s.31.75.75,1.1a7.07,7.07,0,0,0,1.36.95,8.37,8.37,0,0,0,3.12.89,7.79,7.79,0,0,0,5.63-1.7l.36-.31.16.45a28.86,28.86,0,0,0,2.58,5.78,9.89,9.89,0,0,0,3.45,3.35A7.54,7.54,0,0,0,521.23,415.7Z" style="fill:#ff9a6c"></path><path d="M667,271.05c.65-8.12,2.48-16.14,2.72-24.28s-1.33-16.76-6.6-23-15-9.11-21.92-4.85l-1.83,6.82c.48,31.53-2,63.37-1.55,94.9.06,4.14,3.15,8.09,4.78,11.91s5.17,7.1,9.31,7.13c5.42,0,9.34-5.2,11.36-10.22C670.58,311.27,665.39,290.64,667,271.05Z" style="fill:#263238"></path><path d="M650.27,227.57a22.85,22.85,0,0,0-3.76-5.88,7.8,7.8,0,0,0-6.25-2.58,3.22,3.22,0,0,0-2.66,1.69,1.74,1.74,0,0,0,1.34,2.43l.22.21q3.44,3.48,7,6.82a6.31,6.31,0,0,0,2,1.42,2.21,2.21,0,0,0,2.31-.32C651.42,230.4,650.87,228.78,650.27,227.57Z" style="fill:#352323"></path><path d="M654.32,235.86c-7.43-10.45-17.93-16.89-30.71-18-7.21-.61-10.3.69-15.59,1.74a22.85,22.85,0,0,0-13.57,7.71c-4,5-7.53,10.62-8.66,16.93a55.1,55.1,0,0,0-.21,18.26,72.31,72.31,0,0,0,8.3,22.14l11,2.1c9.19.94,18.5,1.87,27.61.38s18.15-5.72,23.49-13.25C663.37,263.43,661.75,246.32,654.32,235.86Z" style="fill:#263238"></path><path d="M639.49,234.75l-21.62-10.34-5.85.28c-13.06-.84-23,12.95-23.85,23.52-.89,11.75-1.52,26.13-.24,34.92,2.57,17.67,17.34,20.13,17.34,20.13s-.93,9.26-1.44,15.1l34.18-.14,7-77.11A6.2,6.2,0,0,0,639.49,234.75Z" style="fill:#ffbf9d"></path><path d="M614.33,280.82a3.68,3.68,0,0,0-1.12-2.37,3.82,3.82,0,0,0-4.58-.58,5.09,5.09,0,0,0-2.25,4.64h0a4.62,4.62,0,0,0,3.17,2.14,6.2,6.2,0,0,0,.62.06,4.14,4.14,0,0,0,2.86-.92A3.65,3.65,0,0,0,614.33,280.82Z" style="fill:#ff9a6c"></path><path d="M591.85,264.27a2.26,2.26,0,0,0,2.15,2.31,2.16,2.16,0,0,0,2.36-2,2.27,2.27,0,0,0-2.15-2.32A2.17,2.17,0,0,0,591.85,264.27Z" style="fill:#263238"></path><path d="M591.75,254.36c.28.3,2-1,4.44-.91s4.2,1.28,4.47,1c.13-.13-.15-.66-.92-1.24a6.17,6.17,0,0,0-3.57-1.15,6,6,0,0,0-3.54,1.09C591.88,253.7,591.62,254.23,591.75,254.36Z" style="fill:#263238"></path><path d="M606.05,274.44c0-.14-1.5-.42-3.95-.77-.62-.07-1.21-.2-1.31-.63a3.16,3.16,0,0,1,.44-1.83q.91-2.25,1.9-4.71c2.64-6.71,4.56-12.22,4.29-12.33s-2.63,5.25-5.27,12l-1.82,4.74a3.61,3.61,0,0,0-.36,2.44,1.6,1.6,0,0,0,1,.92,4,4,0,0,0,1.06.16C604.5,274.55,606,274.58,606.05,274.44Z" style="fill:#263238"></path><path d="M605.24,303.24a44.86,44.86,0,0,0,23.71-6s-6.46,12.15-24.09,10.27Z" style="fill:#ff9a6c"></path><path d="M613.19,276.21c-.4,0-.44,2.62-2.72,4.46s-5.1,1.52-5.12,1.89c0,.17.62.52,1.81.57a6.56,6.56,0,0,0,4.27-1.43,5.7,5.7,0,0,0,2.11-3.74C613.65,276.86,613.37,276.2,613.19,276.21Z" style="fill:#263238"></path><path d="M593.15,245.92c.41.6,2.27.23,4.45.44s4,.8,4.46.28c.21-.26,0-.84-.76-1.45a6.91,6.91,0,0,0-7.18-.58C593.29,245.09,593,245.63,593.15,245.92Z" style="fill:#263238"></path><path d="M616.69,264.93a2.28,2.28,0,0,1-2.3,2.17,2.16,2.16,0,0,1-2.22-2.16,2.26,2.26,0,0,1,2.29-2.17A2.17,2.17,0,0,1,616.69,264.93Z" style="fill:#263238"></path><path d="M624.63,255.65c-.29.28-1.94-1.07-4.37-1.19s-4.27,1-4.52.7c-.13-.14.19-.66,1-1.18a6.19,6.19,0,0,1,3.64-.93,6,6,0,0,1,3.46,1.32C624.55,255,624.78,255.52,624.63,255.65Z" style="fill:#263238"></path><path d="M623.7,247.78c-.5.53-2.35-.14-4.6-.28s-4.19.16-4.6-.44c-.18-.29.15-.83,1-1.31a7.4,7.4,0,0,1,7.42.58C623.7,246.94,623.93,247.52,623.7,247.78Z" style="fill:#263238"></path><path d="M639.94,270.44c0-1.32,1.58-4.39,2.88-4.58,3.47-.49,9.71-.14,9.66,8.66-.08,12-12.14,9.47-12.16,9.13S639.87,275,639.94,270.44Z" style="fill:#ffbf9d"></path><path d="M643.67,279.27c.05,0,.21.15.56.32a2.09,2.09,0,0,0,1.56,0c1.28-.46,2.36-2.47,2.43-4.64a6.93,6.93,0,0,0-.56-3,2.45,2.45,0,0,0-1.57-1.62,1.06,1.06,0,0,0-1.24.57c-.16.33-.09.57-.15.59s-.26-.2-.16-.69a1.32,1.32,0,0,1,.48-.76,1.54,1.54,0,0,1,1.16-.29,3,3,0,0,1,2.18,1.87,7.18,7.18,0,0,1,.7,3.36c-.09,2.42-1.35,4.68-3.09,5.18a2.23,2.23,0,0,1-1.91-.34C643.69,279.57,643.62,279.3,643.67,279.27Z" style="fill:#ff9a6c"></path><path d="M643.31,265.93l-3.26,2.95c-12.29-13.47-35.83-46.71-34.53-44.73a38.45,38.45,0,0,1,18.92-.77c9.65,2.33,27.85,8.48,26.79,20S643.31,265.93,643.31,265.93Z" style="fill:#263238"></path><path d="M660.89,264.47a3.32,3.32,0,0,0-.14-.71,11.12,11.12,0,0,0-.69-1.94,17.36,17.36,0,0,0-4.62-6,33,33,0,0,0-9.75-5.53c-3.92-1.57-8.36-2.89-12.67-5.1a58.73,58.73,0,0,1-11.38-7.43,61.82,61.82,0,0,1-7.86-7.87,64.68,64.68,0,0,1-4.44-6.06c-.44-.7-.8-1.28-1.09-1.73a3.37,3.37,0,0,0-.41-.59,3,3,0,0,0,.31.65c.22.42.53,1,1,1.8a54.59,54.59,0,0,0,4.31,6.21,58.63,58.63,0,0,0,7.83,8,57.39,57.39,0,0,0,11.47,7.54c4.36,2.23,8.84,3.54,12.73,5.08a33.1,33.1,0,0,1,9.68,5.34,17.92,17.92,0,0,1,4.69,5.74C660.62,263.51,660.82,264.48,660.89,264.47Z" style="fill:#455a64"></path><path d="M657.27,266.11a6.27,6.27,0,0,0-.28-2.64,12.27,12.27,0,0,0-4.12-6c-2.37-2-5.87-3.43-9.73-4.6A58.54,58.54,0,0,1,631,248.14a52.64,52.64,0,0,1-10.61-7.59,53.84,53.84,0,0,1-7.08-8,57.45,57.45,0,0,1-3.84-6.11c-.37-.7-.66-1.28-.9-1.74a2.61,2.61,0,0,0-.35-.59,2.72,2.72,0,0,0,.24.64c.21.47.47,1.07.8,1.8a47.51,47.51,0,0,0,3.69,6.25A51.93,51.93,0,0,0,620,241a51.18,51.18,0,0,0,10.7,7.71A57.66,57.66,0,0,0,643,253.47c3.85,1.13,7.28,2.45,9.61,4.39a12.35,12.35,0,0,1,4.17,5.68A14,14,0,0,1,657.27,266.11Z" style="fill:#455a64"></path><path d="M641.53,286.18c0-.08,1-.15,2.84-.49a17.26,17.26,0,0,0,7-3.29,24.25,24.25,0,0,0,6.87-9.1,42.12,42.12,0,0,0,3.53-13.65,32.25,32.25,0,0,0-1.63-13.92,34.83,34.83,0,0,0-5.55-10.09c-4.12-5.18-7.71-7.39-7.56-7.55a2.69,2.69,0,0,1,.64.39c.4.29,1,.67,1.73,1.27a36.76,36.76,0,0,1,5.63,5.54,34.12,34.12,0,0,1,5.8,10.2,35.17,35.17,0,0,1,1.63,6.76,35.84,35.84,0,0,1,.1,7.48,41.75,41.75,0,0,1-3.66,13.88,24.23,24.23,0,0,1-7.19,9.23,16.6,16.6,0,0,1-7.24,3.15,15.26,15.26,0,0,1-2.15.2A2.58,2.58,0,0,1,641.53,286.18Z" style="fill:#455a64"></path><polygon points="604.5 314.67 637.84 311.07 643.94 316.62 620.14 330.61 609.64 336.05 599.27 332.9 595.99 326.72 604.5 314.67" style="fill:#ffbf9d"></polygon><path d="M559.57,355.26s10.45-20.06,13-24.44c4.41-7.47,12.64-11.7,12.64-11.7l19.26-4.45s-2,9.65,10,10.31c15.25.85,24.71-13.77,24.71-13.77S656.6,313,661.4,315s18.39,7.7,20.38,25.77l4.66,29.49-36.75,2.8.51,39.26.18,22.39c-16.41,6.83-40.89,10.74-63.85,4.59-1.39-.38-.67-16.33-3.87-32.65L576.6,392a57,57,0,0,1-4.28-18.47c-.23-4.18-.12-7.34-.12-7.34S562.77,362.92,559.57,355.26Z" style="fill:#352323"></path><path d="M588.52,426.14l61.61-18.49-.44-34.57,31.37-2.39s-2.5,17.91-2.87,27.1c-.52,13.21-6.88,31.68-11.13,35.59s-80.18,8.18-80.18,8.18Z" style="fill:#ffbf9d"></path><path d="M553.58,437A2.43,2.43,0,0,0,556,438.2a3.93,3.93,0,0,0,.6-.17c1.35-.56,1-3.37,1-3.37l6.56-1.6s9.06,4.9,12.42,8.36,11-.15,11-.15l1.62-14.36L576.11,416.8s.8.6-.2-1.4-4.79-.92-4.79-.92c-.67-1-3.21-1.15-3.21-1.15l-10.63,2.06a7.37,7.37,0,0,0-5.11,3.8l-4,7.52s-2,5.36-1.51,6.53a2.13,2.13,0,0,0,2.6,1.21s.79,3.36,1.7,3.41a7.33,7.33,0,0,0,2.6-.84Z" style="fill:#ffbf9d"></path><path d="M575.61,425.08c0,.12-1.44.1-3.72.37a32.69,32.69,0,0,0-8.62,2.32,30.11,30.11,0,0,0-4.36,2.28c-1.24.83-2.55,1.53-2.89,2.51a1.3,1.3,0,0,0,.22,1.26,1.89,1.89,0,0,0,.86.63,2.89,2.89,0,0,0,.95.06s-.31.32-1,.19a2,2,0,0,1-1.09-.63,1.72,1.72,0,0,1-.38-1.66,3.41,3.41,0,0,1,1.22-1.61c.55-.43,1.13-.87,1.78-1.29a28.44,28.44,0,0,1,4.44-2.37,28,28,0,0,1,8.84-2.17A12.53,12.53,0,0,1,575.61,425.08Z" style="fill:#ff9a6c"></path><path d="M576.89,431.86c0,.21-4.37.36-9.71,1.09s-9.6,1.72-9.65,1.52a11.24,11.24,0,0,1,2.74-.89,63.26,63.26,0,0,1,6.82-1.31,59.49,59.49,0,0,1,6.92-.54A11,11,0,0,1,576.89,431.86Z" style="fill:#ff9a6c"></path><path d="M553.62,436.74a5.4,5.4,0,0,1-.22-1.13,25.48,25.48,0,0,1-.25-3.14,13.25,13.25,0,0,1,.13-2.2,6.8,6.8,0,0,1,.87-2.42,14.75,14.75,0,0,1,3.7-4.42,20,20,0,0,1,4.93-3,18.5,18.5,0,0,1,4.57-1.06c1.33-.15,2.4-.21,3.14-.24a3.82,3.82,0,0,1,1.15,0,35.64,35.64,0,0,1-4.22.69A19.76,19.76,0,0,0,563,421a21.13,21.13,0,0,0-4.73,2.93,14.78,14.78,0,0,0-3.58,4.21,8.18,8.18,0,0,0-1.07,4.3C553.58,435.09,553.77,436.73,553.62,436.74Z" style="fill:#ff9a6c"></path><path d="M567.6,416.09c0,.1-1.59.27-4.13.76s-6.37,1.06-8.36,4.63c-2.19,3.29-4,6.37-4.76,8.83a22.11,22.11,0,0,0-.7,4.1,3,3,0,0,1-.15-1.14,10.68,10.68,0,0,1,.39-3.09c.62-2.59,2.45-5.78,4.66-9.08a11.66,11.66,0,0,1,1.92-2.27,7.52,7.52,0,0,1,2.43-1.38,22.46,22.46,0,0,1,4.49-1.07A16.65,16.65,0,0,1,567.6,416.09Z" style="fill:#ff9a6c"></path><path d="M574.08,439.31a3.58,3.58,0,0,1-.68-.43l-1.9-1.31a75.12,75.12,0,0,0-7.42-4.3h.15l-6.55,1.65.21-.3a6.84,6.84,0,0,1,0,1.63,3.06,3.06,0,0,1-.63,1.66,1.68,1.68,0,0,1-.85.47,2.41,2.41,0,0,1-.93.13,2.75,2.75,0,0,1-1.72-.79,2.83,2.83,0,0,1-.32-.37l-.07-.1,0-.05,0,0h0l.4.11h0l-.2.1c-.28.13-.55.26-.84.37a7.74,7.74,0,0,1-.89.3,3.86,3.86,0,0,1-.49.09,1.11,1.11,0,0,1-.62-.07,1.91,1.91,0,0,1-.72-.83,5.91,5.91,0,0,1-.4-.89,16.34,16.34,0,0,1-.57-1.84l.41.24a2.51,2.51,0,0,1-2.54-.66,2,2,0,0,1-.56-1.3,6.1,6.1,0,0,1,.13-1.3,37.28,37.28,0,0,1,1.46-4.92h0v0l2.12-4q.68-1.29,1.35-2.55a13.66,13.66,0,0,1,1.5-2.48,7,7,0,0,1,2.28-1.78,9.44,9.44,0,0,1,2.69-.78l10-1.92h.08a9.8,9.8,0,0,1,1.81.33,3,3,0,0,1,1.62,1l-.38-.09a3.72,3.72,0,0,1,3.46-.07,4.32,4.32,0,0,1,1.91,2.58l-.09-.13,9,6.92,2.43,1.92a5.82,5.82,0,0,1,.82.7,5.87,5.87,0,0,1-.91-.59l-2.51-1.8c-2.22-1.64-5.33-3.94-9.15-6.74l-.06-.05,0-.09a3.85,3.85,0,0,0-1.68-2.24,3.18,3.18,0,0,0-2.92.1l-.22.12-.16-.21a2.44,2.44,0,0,0-1.31-.71,8.44,8.44,0,0,0-1.68-.3H568l-10,2a8.74,8.74,0,0,0-2.52.73,6.47,6.47,0,0,0-2.06,1.62,13,13,0,0,0-1.42,2.36l-1.34,2.55-2.13,4,0,0a37.52,37.52,0,0,0-1.44,4.81,5.88,5.88,0,0,0-.13,1.15,1.4,1.4,0,0,0,.39.88,1.86,1.86,0,0,0,1.86.47l.33-.08.08.32a17.27,17.27,0,0,0,.54,1.77,3.27,3.27,0,0,0,.8,1.38,1,1,0,0,0,.28,0l.4-.08a6.55,6.55,0,0,0,.82-.27c.26-.1.53-.22.79-.34l.19-.09h0l.4.11h0l0,0,0,0,.06.08a1.42,1.42,0,0,0,.25.3,2.09,2.09,0,0,0,1.33.62,1.65,1.65,0,0,0,.73-.09,1.12,1.12,0,0,0,.59-.31,4.15,4.15,0,0,0,.51-2.82l0-.25.22-.05,6.57-1.56.09,0,.07,0a65.41,65.41,0,0,1,7.36,4.51c.82.59,1.43,1.07,1.84,1.41A4.24,4.24,0,0,1,574.08,439.31Z" style="fill:#ff9a6c"></path><path d="M482.43,441.26,461.76,387a3.12,3.12,0,0,1,2.92-4.23H531a3.14,3.14,0,0,1,2.83,1.79l19.87,51.77,41.68.7a3.12,3.12,0,0,1,3.12,3.12h0a3.12,3.12,0,0,1-3.12,3.12H485.34A3.12,3.12,0,0,1,482.43,441.26Z" style="fill:#455a64"></path><path d="M510.51,413a4.35,4.35,0,1,1-4.35-4.35A4.35,4.35,0,0,1,510.51,413Z" style="fill:#fff"></path><path d="M581.71,333.11c.11.06-.89,1.93-2.29,5a86.64,86.64,0,0,0-7.13,25.57c-.41,3.39-.53,5.5-.65,5.5a6,6,0,0,1-.07-1.49c0-1,0-2.35.2-4.06A72.19,72.19,0,0,1,579,337.93c.76-1.54,1.43-2.76,1.93-3.58A5.47,5.47,0,0,1,581.71,333.11Z" style="fill:#263238"></path><path d="M686.44,370.28a3.92,3.92,0,0,1-.76.12l-2.21.21-8.24.69-28.16,2.13-.36,0,0-.36c-.24-3.74-.49-7.69-.75-11.75-.4-7.07-.74-13.81-.85-19.95a28.31,28.31,0,0,1,3.62-15.82A19.51,19.51,0,0,1,656.6,318a15.49,15.49,0,0,1,2.8-1.08,4.94,4.94,0,0,1,1-.25c0,.1-1.39.39-3.67,1.59a19.63,19.63,0,0,0-7.58,7.6,28,28,0,0,0-3.38,15.54c.14,6.12.5,12.85.9,19.92.25,4.06.5,8,.73,11.74l-.39-.33,28.18-1.87,8.25-.47,2.22-.1A3.26,3.26,0,0,1,686.44,370.28Z" style="fill:#263238"></path><path d="M617.35,394.3a4.94,4.94,0,0,1-1.23-.46,10.37,10.37,0,0,1-1.38-.69,18.14,18.14,0,0,1-1.74-1.06,25.72,25.72,0,0,1-4-3.45,28.56,28.56,0,0,1-3.89-5.23,29.13,29.13,0,0,1-2.51-6,24.56,24.56,0,0,1-.88-5.24,14.32,14.32,0,0,1,0-2,9.43,9.43,0,0,1,.11-1.53,4.58,4.58,0,0,1,.24-1.29c.15,0-.09,1.87.2,4.82a27,27,0,0,0,1,5.1,30.08,30.08,0,0,0,2.5,5.84,30.68,30.68,0,0,0,3.74,5.14,27.31,27.31,0,0,0,3.86,3.48C615.7,393.42,617.42,394.16,617.35,394.3Z" style="fill:#263238"></path></g><g id="freepik--Screen--inject-180"><g style="opacity:0.30000000000000004"><rect x="485.37" y="141" width="90.41" height="173.83" rx="11.73" transform="translate(1061.15 455.84) rotate(180)"></rect></g><rect x="482.03" y="124.56" width="90.41" height="185.9" rx="14.43" transform="translate(1054.46 435.03) rotate(180)" style="fill:#fff"></rect><path d="M500.12,124.56h54.22a18,18,0,0,1,18,18v54a26.1,26.1,0,0,1-26.1,26.1h-38a26.09,26.09,0,0,1-26.1-26.1v-54A18,18,0,0,1,500.12,124.56Z" style="fill:#f5f5f5"></path><rect x="487.63" y="154.62" width="76.34" height="17.67" rx="6.96" style="fill:#e0e0e0"></rect><path d="M551.14,139.39a1.7,1.7,0,1,1-1.7,1.7A1.7,1.7,0,0,1,551.14,139.39Z" style="fill:#263238"></path><path d="M556,139.39a1.7,1.7,0,1,1-1.7,1.7A1.71,1.71,0,0,1,556,139.39Z" style="fill:#263238"></path><ellipse cx="560.9" cy="141.09" rx="1.7" ry="1.7" style="fill:#263238"></ellipse><path d="M493.42,138.54l-2.05,2.11a.63.63,0,0,0,0,.89l2.05,1.69a.63.63,0,0,0,.88,0,.62.62,0,0,0,0-.88l-2.05-1.7v.89l2.05-2.12a.62.62,0,0,0,0-.88.63.63,0,0,0-.88,0Z" style="fill:#263238"></path><path d="M495.93,163.26a1.44,1.44,0,0,1-2.57.9,1.47,1.47,0,0,1-.11-1.64,1.44,1.44,0,0,1,2.68.74.38.38,0,0,0,.75,0,2.23,2.23,0,0,0-1.44-2.06,2.2,2.2,0,0,0-2.43.65,2.19,2.19,0,0,0,2.1,3.56,2.2,2.2,0,0,0,1.77-2.15A.38.38,0,0,0,495.93,163.26Z" style="fill:#263238"></path><path d="M495.46,164.86l.69.76.1.11a.36.36,0,0,0,.26.11.37.37,0,0,0,.27-.11.39.39,0,0,0,0-.53l-.69-.76-.1-.11a.36.36,0,0,0-.26-.11.4.4,0,0,0-.27.11.39.39,0,0,0,0,.53Z" style="fill:#263238"></path><path d="M495.75,187.85h-4.51a3.41,3.41,0,0,1-3.42-3.41h0a3.42,3.42,0,0,1,3.42-3.41h4.51a3.41,3.41,0,0,1,3.41,3.41h0A3.41,3.41,0,0,1,495.75,187.85Z" style="fill:#352323"></path><path d="M561.72,187.85H557.2a3.41,3.41,0,0,1-3.41-3.41h0A3.41,3.41,0,0,1,557.2,181h4.52a3.41,3.41,0,0,1,3.41,3.41h0A3.41,3.41,0,0,1,561.72,187.85Z" style="fill:#e0e0e0"></path><path d="M525.62,187.85H507a3.41,3.41,0,0,1-3.42-3.41h0A3.42,3.42,0,0,1,507,181h18.62a3.41,3.41,0,0,1,3.41,3.41h0A3.41,3.41,0,0,1,525.62,187.85Z" style="fill:#ebebeb"></path><path d="M547,187.85H535.36a3.41,3.41,0,0,1-3.41-3.41h0a3.41,3.41,0,0,1,3.41-3.41H547a3.42,3.42,0,0,1,3.42,3.41h0A3.41,3.41,0,0,1,547,187.85Z" style="fill:#455a64"></path><rect x="493.47" y="253.14" width="20.5" height="5.04" rx="2.52" style="fill:#352323"></rect><path d="M561.31,290.89a3.43,3.43,0,1,1-3.43-3.43A3.43,3.43,0,0,1,561.31,290.89Z" style="fill:#352323"></path><path d="M551.46,290.89a3.44,3.44,0,1,1-3.44-3.43A3.44,3.44,0,0,1,551.46,290.89Z" style="fill:#352323"></path><path d="M540.86,290.89a3.43,3.43,0,1,1-3.43-3.43A3.43,3.43,0,0,1,540.86,290.89Z" style="fill:#352323"></path><path d="M561.54,275.84h-27a1.61,1.61,0,0,1-1.61-1.61h0a1.61,1.61,0,0,1,1.61-1.61h27a1.61,1.61,0,0,1,1.6,1.61h0A1.61,1.61,0,0,1,561.54,275.84Z" style="fill:#263238"></path><path d="M561.54,282.5h-27a1.61,1.61,0,0,1-1.61-1.61h0a1.62,1.62,0,0,1,1.61-1.61h27a1.61,1.61,0,0,1,1.6,1.61h0A1.61,1.61,0,0,1,561.54,282.5Z" style="fill:#263238"></path><rect x="490.99" y="197.69" width="71.8" height="45.33" rx="6.56" style="fill:#fff"></rect><circle cx="523.22" cy="211.49" r="4.79" style="fill:#455a64"></circle><path d="M562.8,237.18V221.09a42.05,42.05,0,0,0-5.95-6c-3.56-2.82-7.86-4.7-12.16-4.24-5.57.61-10.33,5-13.6,10.2-1.6,2.54-3.26,5.57-6,6.1-2.08.41-4.13-.85-5.78-2.34s-3.16-3.28-5.09-4.25c-3.87-2-8.35-.13-12.12,2.06a72.41,72.41,0,0,0-11.15,8v6.52c0,3.22,2.29,5.84,5.11,5.84h61.59C560.51,243,562.8,240.4,562.8,237.18Z" style="fill:#455a64"></path><path d="M556.24,243a8,8,0,0,0,2.2-.45,6.4,6.4,0,0,0,2.28-1.44,6.33,6.33,0,0,0,1.79-3.18,8.15,8.15,0,0,0,.17-2.19c0-.78,0-1.61,0-2.46,0-1.72,0-3.59,0-5.59,0-4,0-8.57,0-13.61,0-2.53,0-5.17,0-7.92a11.74,11.74,0,0,0-.4-4.1,6.38,6.38,0,0,0-2.61-3.22,6.47,6.47,0,0,0-2-.81,10.16,10.16,0,0,0-2.22-.14H550.7l-9.75,0-43.4,0a6.3,6.3,0,0,0-6.08,4.66,9.83,9.83,0,0,0-.22,2.73v11.08c0,3.63,0,7.19,0,10.68v7.73a22.45,22.45,0,0,0,.06,2.48,6.29,6.29,0,0,0,2.27,4.06,6.4,6.4,0,0,0,4.32,1.42h9.19l16.5,0,23.9.08,6.5.05,1.68,0c.39,0,.58,0,.58,0l-.58,0-1.68,0-6.5.05-23.9.08-16.5,0h-9.19a6.89,6.89,0,0,1-4.62-1.51,6.81,6.81,0,0,1-2.45-4.35,21.84,21.84,0,0,1-.07-2.55v-2.55c0-1.7,0-3.43,0-5.18V216.42c0-3.63,0-7.33,0-11.08a10.35,10.35,0,0,1,.24-2.86,6.79,6.79,0,0,1,6.58-5l43.4,0h14.42a10.61,10.61,0,0,1,2.31.16,6.5,6.5,0,0,1,2.14.88,6.79,6.79,0,0,1,2.78,3.44,6.64,6.64,0,0,1,.39,2.15c0,.7,0,1.4,0,2.09,0,2.75,0,5.39,0,7.92,0,5,0,9.6,0,13.61,0,2,0,3.87,0,5.59,0,.85,0,1.68,0,2.46a8.58,8.58,0,0,1-.2,2.24,6.59,6.59,0,0,1-4.23,4.67,6.27,6.27,0,0,1-1.66.34Z" style="fill:#263238"></path><rect x="490.88" y="265.58" width="34.94" height="31.73" rx="8.57" style="fill:#fff"></rect><path d="M513,274.74a3.43,3.43,0,1,1-3.43-3.43A3.44,3.44,0,0,1,513,274.74Z" style="fill:#352323"></path><path d="M499.69,297.31H517a8.81,8.81,0,0,0,8.81-8.82V277.84a10.62,10.62,0,0,0-3.94-.63,9,9,0,0,0-5.53,2.3c-1.42,1.22-2.45,2.66-3.76,3.95a5.48,5.48,0,0,1-3.42,1.78c-3.37.23-4.78-3.49-8-4.21a6.51,6.51,0,0,0-4.49.81,12.76,12.76,0,0,0-3.07,2.71l-2.7,3v.95A8.81,8.81,0,0,0,499.69,297.31Z" style="fill:#352323"></path><path d="M517.32,297.31s.42,0,1.2-.15A8.16,8.16,0,0,0,521.7,296a8.47,8.47,0,0,0,3.38-4.09c.85-1.95.49-4.44.55-7.12s0-5.63,0-8.78a12.61,12.61,0,0,0-.53-4.76,8.26,8.26,0,0,0-3-3.92,8.37,8.37,0,0,0-5-1.47H499.37a8.29,8.29,0,0,0-5.39,2,8.13,8.13,0,0,0-2.73,4.89,17.55,17.55,0,0,0-.12,2.82v2.82c0,1.86,0,3.68,0,5.46V289a8.36,8.36,0,0,0,1.43,4.48,8.27,8.27,0,0,0,3.37,2.84,8.73,8.73,0,0,0,4,.78l12.73.08,3.46.05.9,0,.3,0-.3,0-.9,0-3.46.05-12.73.08a9.05,9.05,0,0,1-4.18-.78,8.67,8.67,0,0,1-5.09-7.67c0-1.68,0-3.41,0-5.19s0-3.6,0-5.46v-2.82a16.78,16.78,0,0,1,.11-2.9,8.77,8.77,0,0,1,8.63-7.35H517a8.85,8.85,0,0,1,5.28,1.57,8.71,8.71,0,0,1,3.2,4.17A12.84,12.84,0,0,1,526,276c0,3.15,0,6.09,0,8.78,0,1.34,0,2.62,0,3.83a9,9,0,0,1-.63,3.4,8.54,8.54,0,0,1-3.54,4.15,8.2,8.2,0,0,1-3.28,1.13A5.83,5.83,0,0,1,517.32,297.31Z" style="fill:#263238"></path><path d="M496.11,310.47l-1.36-.05a14,14,0,0,1-3.88-.92,13.72,13.72,0,0,1-5.3-3.69,14.11,14.11,0,0,1-3.57-8c-.13-1.68-.06-3.43-.09-5.28s0-3.79,0-5.82c0-4,0-8.46,0-13.19,0-9.47,0-20.24,0-32.16,0-23.83,0-52.2,0-83.71,0-3.93,0-7.92,0-12,0-2,0-4,.05-6.09a16.3,16.3,0,0,1,10.72-14.31,17.86,17.86,0,0,1,6.32-1h56.06a28.27,28.27,0,0,1,3.43.14,16.4,16.4,0,0,1,11.44,6.91,15.94,15.94,0,0,1,2.6,6.25,36.76,36.76,0,0,1,.29,6.69v26.16c0,17.14,0,33.68,0,49.44s0,30.72,0,44.74c0,7,0,13.77,0,20.27q0,4.88,0,9.56a23.24,23.24,0,0,1-.27,4.64,15.06,15.06,0,0,1-1.58,4.28,13.88,13.88,0,0,1-2.78,3.48,13.32,13.32,0,0,1-3.6,2.42,13.75,13.75,0,0,1-4,1.2,28.42,28.42,0,0,1-4.1.15l-15.16,0-24.28,0-15.35-.05-4,0-1.36,0,1.36,0,4,0,15.35-.05,24.28,0,15.16,0a28.88,28.88,0,0,0,4-.16,13,13,0,0,0,4-1.18,13.2,13.2,0,0,0,3.51-2.36,14,14,0,0,0,2.7-3.4A14.8,14.8,0,0,0,572,299a23.81,23.81,0,0,0,.25-4.57q0-4.68,0-9.56c0-6.5,0-13.27,0-20.27,0-14,0-29,0-44.74s0-32.3,0-49.44V144.29a38.13,38.13,0,0,0-.29-6.6,15.4,15.4,0,0,0-2.52-6A15.91,15.91,0,0,0,558.3,125a31.34,31.34,0,0,0-3.37-.13H498.87a16.92,16.92,0,0,0-6.14,1,15.81,15.81,0,0,0-10.41,13.86c-.1,2,0,4.06-.05,6.06v12c0,31.51,0,59.88-.06,83.71,0,11.92,0,22.69,0,32.16,0,4.73,0,9.14,0,13.19,0,2,0,4,0,5.82s-.06,3.62.06,5.26a14,14,0,0,0,3.49,7.92,13.85,13.85,0,0,0,5.22,3.7A15.16,15.16,0,0,0,496.11,310.47Z" style="fill:#263238"></path><path d="M526.89,356.21c-.14,0-.26-10.24-.26-22.87s.12-22.87.26-22.87.26,10.23.26,22.87S527,356.21,526.89,356.21Z" style="fill:#263238"></path><path d="M530.66,123a4.86,4.86,0,1,1-4.86-4.86A4.86,4.86,0,0,1,530.66,123Z" style="fill:#263238"></path><circle cx="527.23" cy="355.15" r="4.86" style="fill:#263238"></circle><path d="M470.33,103a6.35,6.35,0,0,1,.75,0l2.15,0,7.91-.08,26.08-.08h11a7.72,7.72,0,0,1,7.47,5.49,8.71,8.71,0,0,1,.32,2.87c0,.91,0,1.78,0,2.62,0,3.3-.06,6-.08,7.9,0,.9,0,1.61,0,2.15a4.27,4.27,0,0,1-.05.75,3.29,3.29,0,0,1,0-.75c0-.54,0-1.25-.05-2.15,0-1.92,0-4.6-.09-7.9,0-.84,0-1.71,0-2.62a8.36,8.36,0,0,0-.33-2.75,7.29,7.29,0,0,0-3.88-4.44c-1.93-1-4.32-.59-6.72-.67h-7.43l-26.08-.07-7.91-.08-2.15,0A3.7,3.7,0,0,1,470.33,103Z" style="fill:#263238"></path></g><g id="freepik--speech-bubble-2--inject-180"><path d="M675.35,288.91l2.68-8.07a27.2,27.2,0,1,1,6.77,7v0Z" style="fill:#fff"></path><path d="M675.35,288.91l.63-.08,1.82-.23,7-.84-.06.14h0a.09.09,0,0,1,0-.12.09.09,0,0,1,.11,0,27,27,0,0,0,12.45,4.83,26,26,0,0,0,4.18.17,30.28,30.28,0,0,0,4.43-.55,26.91,26.91,0,0,0,14.37-44.72,26.7,26.7,0,0,0-10.86-7.09,27.3,27.3,0,0,0-12.32-1.28,26.51,26.51,0,0,0-11,4,27,27,0,0,0-11.76,16.48c-.08.38-.16.76-.25,1.13a7.49,7.49,0,0,0-.19,1.12c-.09.75-.17,1.49-.26,2.21a36.68,36.68,0,0,0,.05,4.21,27.11,27.11,0,0,0,4.38,12.54.15.15,0,0,1,0,.07c-.89,2.59-1.57,4.59-2,6-.24.67-.41,1.19-.54,1.55s-.19.53-.19.53,0-.17.16-.51.28-.87.49-1.54c.45-1.38,1.1-3.41,2-6v.07a27.07,27.07,0,0,1-4.49-12.61,39.69,39.69,0,0,1-.07-4.25c.08-.73.17-1.47.25-2.23a7.44,7.44,0,0,1,.2-1.13l.24-1.14a27,27,0,0,1,4-9.09,27.34,27.34,0,0,1,7.85-7.62,26.77,26.77,0,0,1,11.1-4.06,27.8,27.8,0,0,1,12.5,1.28,27.06,27.06,0,0,1,11,7.19,13,13,0,0,1,1.09,1.25l1,1.28.91,1.37a12.22,12.22,0,0,1,.84,1.39l.75,1.44a13.77,13.77,0,0,1,.64,1.48c.2.5.43,1,.59,1.49s.3,1,.46,1.53a26.78,26.78,0,0,1,.55,12.3A27.2,27.2,0,0,1,706,292.5a30.89,30.89,0,0,1-4.48.54,26.48,26.48,0,0,1-4.22-.2,27.06,27.06,0,0,1-12.52-4.94l.11-.12h0a.08.08,0,0,1,0,.12l-.05,0-7.07.74-1.79.19Z" style="fill:#263238"></path><polygon points="688.07 266.53 691.85 262.35 699.88 268.79 711.82 255.09 715.72 258.89 699.7 276.51 688.07 266.53" style="fill:#352323"></polygon></g><g id="freepik--character-1--inject-180"><g style="opacity:0.30000000000000004"><path d="M251.85,135.2l.21,110.63a113.27,113.27,0,0,0-.21-110.63Z"></path></g><circle cx="144.54" cy="190.78" r="113.13" transform="translate(-92.57 158.09) rotate(-45)" style="fill:#f5f5f5"></circle><path d="M31.42,190.78s0-.62,0-1.83c0-.61,0-1.36,0-2.26s0-1.94.14-3.12.18-2.51.29-4,.36-3,.57-4.76a118.19,118.19,0,0,1,2.26-11.74,113,113,0,0,1,4.6-14.25,108.1,108.1,0,0,1,7.85-16,114.42,114.42,0,0,1,28.73-32.26,113.06,113.06,0,0,1,47.7-21.23,113,113,0,0,1,29.23-1.63A111.13,111.13,0,0,1,168,79.88a120.17,120.17,0,0,1,15.16,4.31,113.39,113.39,0,0,1,62,54.39c.66,1.32,1.39,2.61,2,4s1.22,2.69,1.83,4c1.1,2.76,2.23,5.52,3.13,8.38a110.14,110.14,0,0,1,4.32,17.54,112.88,112.88,0,0,1,0,36.5,110.26,110.26,0,0,1-4.32,17.55c-.9,2.86-2,5.62-3.13,8.38L247.17,239c-.59,1.36-1.32,2.64-2,4a111.4,111.4,0,0,1-9.25,14.89,113.55,113.55,0,0,1-52.74,39.52A120.17,120.17,0,0,1,168,301.69a115.25,115.25,0,0,1-44.43.47,112.94,112.94,0,0,1-47.69-21.23,114.53,114.53,0,0,1-28.73-32.25,108.67,108.67,0,0,1-7.85-16,112.34,112.34,0,0,1-4.6-14.24,118.74,118.74,0,0,1-2.26-11.74c-.21-1.72-.43-3.3-.57-4.76s-.2-2.78-.29-4-.12-2.22-.14-3.12,0-1.65,0-2.26c0-1.21,0-1.84,0-1.84s0,.63.07,1.84c0,.61,0,1.36.07,2.26s.05,1.94.16,3.12.2,2.49.32,3.95.38,3,.59,4.75c.49,3.42,1.23,7.34,2.3,11.71a114.69,114.69,0,0,0,4.64,14.2,109.38,109.38,0,0,0,7.87,15.92,114.46,114.46,0,0,0,28.7,32.11,112.68,112.68,0,0,0,47.55,21.1,114.51,114.51,0,0,0,44.25-.51,121,121,0,0,0,15.1-4.3,113.25,113.25,0,0,0,52.49-39.37,111,111,0,0,0,9.21-14.82c.64-1.32,1.38-2.6,2-4l1.83-4c1.08-2.75,2.21-5.5,3.11-8.34a110.33,110.33,0,0,0,4.3-17.47,112.65,112.65,0,0,0,0-36.34,110.48,110.48,0,0,0-4.3-17.46c-.9-2.84-2-5.59-3.11-8.34l-1.83-4c-.58-1.35-1.31-2.63-2-3.94A111,111,0,0,0,235.52,124,113.15,113.15,0,0,0,183,84.64,121.29,121.29,0,0,0,168,80.34a114.56,114.56,0,0,0-44.25-.51,112.68,112.68,0,0,0-47.55,21.1A114.33,114.33,0,0,0,47.44,133,109,109,0,0,0,39.57,149a113.61,113.61,0,0,0-4.64,14.2c-1.07,4.36-1.81,8.28-2.3,11.71-.21,1.72-.44,3.3-.59,4.75s-.22,2.77-.32,3.95-.14,2.22-.16,3.12,0,1.65-.07,2.26C31.45,190.16,31.42,190.78,31.42,190.78Z" style="fill:#263238"></path><path d="M229.47,110.2A7.53,7.53,0,0,0,238.11,98,7.82,7.82,0,0,0,237,83.16a9.37,9.37,0,0,0-10-12.58,10.54,10.54,0,0,0-11.84-5.3,7.49,7.49,0,0,0-11.05,9.12" style="fill:#263238"></path><path d="M210.73,71.49l1.52.64a31.93,31.93,0,0,1,17.81,39.47c-4.89,14.69-10.48,30.85-13.81,38.43-6.89,15.68-23.71,11.43-23.71,11.43L185.82,181l-37.77-17.45,25.81-70.16C179.41,76.39,193.91,65.47,210.73,71.49Z" style="fill:#ae7461"></path><path d="M192.68,161.5a41.64,41.64,0,0,1-18.1-14.83s.26,13.46,16.6,18.73Z" style="fill:#6f4439"></path><path d="M217.85,126.18a2.45,2.45,0,0,1-3.14,1.35,2.34,2.34,0,0,1-1.46-3,2.45,2.45,0,0,1,3.14-1.35A2.34,2.34,0,0,1,217.85,126.18Z" style="fill:#263238"></path><path d="M223.39,117.88c-.4.17-1.57-1.81-4-2.84s-4.72-.56-4.85-1c-.08-.19.43-.6,1.45-.83a6.75,6.75,0,0,1,4,.41,6.5,6.5,0,0,1,3,2.63C223.56,117.17,223.58,117.81,223.39,117.88Z" style="fill:#263238"></path><path d="M196.33,116.33a2.44,2.44,0,0,1-3.13,1.35,2.34,2.34,0,0,1-1.46-3,2.44,2.44,0,0,1,3.13-1.35A2.34,2.34,0,0,1,196.33,116.33Z" style="fill:#263238"></path><path d="M199.38,108.21c-.41.17-1.58-1.82-4-2.84s-4.71-.56-4.85-1c-.07-.19.43-.6,1.45-.83a6.75,6.75,0,0,1,4,.41,6.45,6.45,0,0,1,3,2.63C199.54,107.5,199.57,108.13,199.38,108.21Z" style="fill:#263238"></path><path d="M200.53,129.92c.05-.14,1.67.24,4.24,1,.65.2,1.29.33,1.57,0a3.5,3.5,0,0,0,.37-2c0-1.75.11-3.57.17-5.49.31-7.79.81-14.09,1.13-14.07s.31,6.34,0,14.13c-.09,1.91-.17,3.74-.26,5.48a3.88,3.88,0,0,1-.71,2.57,1.69,1.69,0,0,1-1.4.47,4.66,4.66,0,0,1-1.11-.3C202,130.7,200.48,130.06,200.53,129.92Z" style="fill:#263238"></path><path d="M205.44,99.78c-.58.47-2.37-1.07-4.9-2.24s-4.85-1.66-4.81-2.4c0-.35.71-.71,1.84-.81a8.34,8.34,0,0,1,4.18.83A8,8,0,0,1,205,97.87C205.58,98.8,205.71,99.54,205.44,99.78Z" style="fill:#263238"></path><path d="M227.75,107.94c-.74.33-2.5-1.09-4.89-2.14s-4.6-1.52-4.82-2.29c-.09-.37.46-.79,1.57-.93a8.4,8.4,0,0,1,4.38.8,8.32,8.32,0,0,1,3.46,2.77C228.06,107.08,228.09,107.76,227.75,107.94Z" style="fill:#263238"></path><path d="M231.62,103.73s0-11.65-3.75-16c-4.58-5.24-9.75,0-14.59-3.83s-9.21-8.89-16.63-7c-8.12,2-6.63,6.52-10,13.36-13.6,27.72-22.19,33.54-18,19.55.46-1.53-3.11-4.43-1.08-10.87,2.62-8.35,6.45-18.22,10.66-23.15,3.55-4.16,7.69-6.31,14.15-7.88,10.2-2.48,20.89,1.92,27.8,5.71S237.53,91.64,231.62,103.73Z" style="fill:#263238"></path><path d="M169.87,109.8a4.64,4.64,0,0,0-2.87-6.09c-3.06-1-7-.69-9.43,5.47-4.23,10.93,7.61,12.93,7.75,12.62S168.14,114.39,169.87,109.8Z" style="fill:#ae7461"></path><path d="M164.54,116.77c0-.06-.24,0-.62.08a2.05,2.05,0,0,1-1.44-.53c-1-.87-1.25-3.08-.54-5.07a6.92,6.92,0,0,1,1.59-2.52,2.37,2.37,0,0,1,2-.9,1,1,0,0,1,.92,1c0,.36-.12.55-.07.59s.3-.09.39-.58a1.28,1.28,0,0,0-.17-.85,1.51,1.51,0,0,0-.94-.68,2.88,2.88,0,0,0-2.65.92,7.06,7.06,0,0,0-1.84,2.79c-.78,2.23-.45,4.73,1,5.79a2.18,2.18,0,0,0,1.85.39C164.42,117,164.57,116.8,164.54,116.77Z" style="fill:#6f4439"></path><path d="M179,89A11.13,11.13,0,0,0,182.63,93c1.62.89,4,.74,5-.81.44-.7.63-1.65,1.37-2s1.88.24,2.74.72c3,1.66,8.13-.24,10.22-3a3.05,3.05,0,0,0,3.43,2.37,10.89,10.89,0,0,0,3.58-1.2c1.41-.68,3.15-1.09,4.49-.28.75.45,1.29,1.24,2.12,1.51,1.47.48,2.87-.88,3.68-2.2s1.68-2.88,3.2-3.14,2.68.79,3.9,1.53,3,1.16,3.91,0a2.79,2.79,0,0,0,.35-2.16,7.59,7.59,0,0,0-7.12-6.15,10.28,10.28,0,0,0-16.61-9.22A10.44,10.44,0,0,0,190,66a7.56,7.56,0,0,0-12.15,6.79c-2.41.29-4.89,1.51-5.87,3.72s.24,5.37,2.64,5.69a4.19,4.19,0,0,0,5,6.68" style="fill:#263238"></path><path d="M222.91,81.8s0,.07-.08.2-.17.32-.32.55a7.5,7.5,0,0,1-1.66,1.74,8.38,8.38,0,0,1-3.48,1.53,7.78,7.78,0,0,1-5-.61l.28-.16a4.17,4.17,0,0,1-1.48,2.88,12.16,12.16,0,0,1-3,1.87,8.81,8.81,0,0,1-1.73.72,4.15,4.15,0,0,1-2-.09,4.28,4.28,0,0,1-2.94-2.72l.45.06a8.82,8.82,0,0,1-5.81,4.14,6.39,6.39,0,0,1-4-.35A11.43,11.43,0,0,1,189,89.31h.35a9.24,9.24,0,0,1-4,2.24,4.91,4.91,0,0,1-4.19-.57,6.44,6.44,0,0,1-2.6-6.59l.2.22a6.07,6.07,0,0,1-3.94-1,6.48,6.48,0,0,1-2.09-2.25,5.78,5.78,0,0,1-.65-1.83,3.48,3.48,0,0,1,0-.68,7.24,7.24,0,0,0,.86,2.41,6.57,6.57,0,0,0,2.08,2.11,5.81,5.81,0,0,0,3.74.91l.25,0-.06.25a6.07,6.07,0,0,0,2.5,6.14,4.44,4.44,0,0,0,3.82.48A8.7,8.7,0,0,0,189,89l.17-.17.17.16a11.35,11.35,0,0,0,3,2.15,6,6,0,0,0,3.73.31,8.3,8.3,0,0,0,5.48-3.9l.29-.48.16.54a3.83,3.83,0,0,0,2.6,2.4,3.6,3.6,0,0,0,1.75.09,8.63,8.63,0,0,0,1.63-.67,11.75,11.75,0,0,0,2.88-1.77,3.85,3.85,0,0,0,1.38-2.6l0-.29.26.13a7.57,7.57,0,0,0,4.72.66,8.47,8.47,0,0,0,3.4-1.41A9,9,0,0,0,222.91,81.8Z" style="fill:#455a64"></path><path d="M196.48,138c.11-.43-2.78-1-4.34-3.88s-.65-5.89-1-6c-.17-.07-.69.58-1,1.87a7.33,7.33,0,0,0,.7,5,6.44,6.44,0,0,0,3.68,3.06C195.68,138.37,196.46,138.19,196.48,138Z" style="fill:#263238"></path><path d="M138,145l16.14,2.12c1.34,11.67,20.08,27.27,36.36,19.71l27,23.42c-.72.7-16.11,34.28-32.36,65.12-4.41,8.36-9.53,16-13.06,23.07l-1.74,23.21C142.78,308,112,303.49,90.48,290.82,80.6,284.87,71.4,278,63.65,269.49L93.46,168.61s-.74-17.43,16-22a61.23,61.23,0,0,1,18.76-2.19C129.92,144.45,135.34,144.72,138,145Z" style="fill:#352323"></path><path d="M197.81,181.39s20.26,1.56,24.88,18-.51,78.3-.51,78.3l29,12.43-4.59,21.57s-28.61,2.83-47.1-1.8-7.57-97.35-7.57-97.35Z" style="fill:#352323"></path><path d="M213.4,210a6.47,6.47,0,0,1-.41.73l-1.22,2.05c-1.08,1.83-2.61,4.39-4.49,7.55l-14.86,24.87-15,24.82-4.58,7.49c-.53.85-.95,1.52-1.26,2a4.15,4.15,0,0,1-.48.68,6.21,6.21,0,0,1,.39-.74l1.18-2.07,4.43-7.58L192,245c5.82-9.71,11.12-18.47,15-24.79,1.94-3.16,3.52-5.72,4.63-7.47.56-.87,1-1.55,1.3-2A6.58,6.58,0,0,1,213.4,210Z" style="fill:#263238"></path><path d="M88.63,161s-50.81,68.81-40.8,84.61c16.36,25.82,89.59,12.19,89.59,12.19l-1.65-34.31-40.85.47,22.82-41.71,14-37.6C114.12,143.54,100.61,144.79,88.63,161Z" style="fill:#352323"></path><path d="M108.23,199.18a4.35,4.35,0,0,1-.4,1c-.29.64-.72,1.56-1.27,2.68-1.1,2.26-2.68,5.34-4.51,8.7s-3.54,6.37-4.83,8.52c-.65,1.07-1.18,1.94-1.56,2.53a4.15,4.15,0,0,1-.65.88,4.58,4.58,0,0,1,.47-1l1.42-2.6,4.7-8.59,4.63-8.61,1.42-2.61A4.8,4.8,0,0,1,108.23,199.18Z" style="fill:#263238"></path><path d="M106,196.93,245.6,339.37l34.33-31.11L137.42,165.85a22.09,22.09,0,0,0-30.87-.35h0A22.08,22.08,0,0,0,106,196.93Z" style="fill:#455a64"></path><path d="M279.93,308.26l7.9,36.28a4.56,4.56,0,0,1-5.72,5.35L245.6,339.37Z" style="fill:#f5f5f5"></path><path d="M287,340.77l1,4.6a4.13,4.13,0,0,1-5.29,4.81l-4.15-1.32Z" style="fill:#352323"></path><path d="M106.55,165.5h0a22.09,22.09,0,0,1,29.29-1.08l-31.18,31a.39.39,0,0,1-.08-.1l-.11-.13A22.08,22.08,0,0,1,106.55,165.5Z" style="fill:#263238"></path><path d="M106.62,165.43s-.32.37-1,1.06l-.54.58c-.18.22-.37.49-.58.76l-.69.91c-.24.32-.44.71-.68,1.1a20.18,20.18,0,0,0-2.56,6.27,22.77,22.77,0,0,0,4.57,19.63c1.37,1.62,3,3.16,4.6,4.82l5,5.14,23.71,24.13c17.55,17.9,38.46,39.2,61.67,62.86l36.4,37.13,4.76,4.85,2.39,2.43a12,12,0,0,0,2.71,2,14.18,14.18,0,0,0,3.17,1.19l3.32,1,6.69,1.92,13.52,3.9,6.82,2,1.72.49a5.5,5.5,0,0,0,1.67.3,4.31,4.31,0,0,0,3-1.28,4.25,4.25,0,0,0,1.26-3,8.16,8.16,0,0,0-.26-1.71L287,342c-.51-2.32-1-4.64-1.51-6.94q-1.51-6.93-3-13.75c-.49-2.28-1-4.55-1.48-6.8-.24-1.13-.49-2.26-.73-3.39a9,9,0,0,0-1.23-3.1,14.65,14.65,0,0,0-2.23-2.52l-2.42-2.42-4.8-4.8-36.78-36.77-62.26-62.29-23.9-23.94c-3.53-3.51-6.77-6.83-9.82-9.8l-1.17-1.06-1.23-.91a10.14,10.14,0,0,0-1.26-.83c-.43-.24-.83-.52-1.27-.73a20.14,20.14,0,0,0-2.59-1.13c-.44-.15-.85-.33-1.29-.45l-1.28-.33a21.67,21.67,0,0,0-9.21-.18c-.65.16-1.29.26-1.88.44l-1.7.55a23.7,23.7,0,0,0-2.79,1.31c-.4.22-.78.42-1.13.63l-.93.64-.8.55-.61.51c-.72.61-1.1.91-1.1.91s.36-.33,1.07-1l.6-.52.79-.56.93-.66,1.13-.65a24.66,24.66,0,0,1,2.8-1.33l1.7-.56c.59-.19,1.24-.3,1.89-.46a21.77,21.77,0,0,1,9.28.13l1.3.33c.44.12.86.3,1.3.44a23,23,0,0,1,2.63,1.14c.44.21.85.49,1.28.74a10.27,10.27,0,0,1,1.28.82l1.25.93,1.18,1.06c3.07,3,6.32,6.27,9.86,9.77l24,23.89,62.34,62.21L270,298l4.8,4.8,2.42,2.42a15.61,15.61,0,0,1,2.31,2.6,9.57,9.57,0,0,1,1.29,3.28c.25,1.12.49,2.25.74,3.38q.73,3.38,1.48,6.8,1.49,6.82,3,13.75c.51,2.3,1,4.62,1.52,6.94l.38,1.74a8.77,8.77,0,0,1,.27,1.82,4.85,4.85,0,0,1-4.8,4.84,6.11,6.11,0,0,1-1.83-.32l-1.71-.49-6.83-2-13.52-3.9-6.68-1.93-3.33-1a14.17,14.17,0,0,1-3.26-1.23,12.48,12.48,0,0,1-2.83-2L241,335l-4.75-4.85L199.86,293l-61.6-62.94L114.61,205.9l-5-5.15c-1.61-1.67-3.22-3.2-4.6-4.85a22.89,22.89,0,0,1-4.53-19.82,20.37,20.37,0,0,1,2.62-6.3c.25-.39.45-.77.7-1.1l.69-.9c.22-.27.41-.53.6-.76l.56-.57C106.27,165.77,106.62,165.43,106.62,165.43Z" style="fill:#263238"></path><path d="M239.9,281.4a8.85,8.85,0,0,1,2.31-3.16,47,47,0,0,0,3.51-3.69l6.16-5.73a3.77,3.77,0,0,1,4.8,5c1.19-.42,1.65-1,2.88-.68a4,4,0,0,1,2.86,2.27,2.88,2.88,0,0,1-.9,3.38,4.68,4.68,0,0,1,4.91,6.15,5,5,0,0,1-.82,1.53,2.06,2.06,0,0,1-.44.49,1,1,0,0,1-.29.09c-.47.08-.94.07-1.41.18l-.52.14a8.88,8.88,0,0,0-2.21,1.08,8.94,8.94,0,0,1-.95.66,5.7,5.7,0,0,1-.74.16,11.67,11.67,0,0,0-4.06,2.57,9.18,9.18,0,0,1-4.61,2.42c-1.75.18-3.76-1-3.84-2.74a2.3,2.3,0,0,1-3,.16,3.35,3.35,0,0,1-1.11-3,6.28,6.28,0,0,1,1.4-3,2.54,2.54,0,0,1-3.49-.51A3.9,3.9,0,0,1,239.9,281.4Z" style="fill:#ae7461"></path><path d="M269.2,289.5a3.78,3.78,0,0,1,1,3c-.24,1.26-1.65,2.56-2.73,3.26-1.14-1-1.66-1.61-2.8-2.63-.24-.21-.33-.47-.64-.57-.82-.25-2.07.85-2.87,1.11a2.89,2.89,0,0,1-3.47-1.95,3.91,3.91,0,0,1,1.33-4,6,6,0,0,1,4.14-1.24A8.35,8.35,0,0,1,269.2,289.5Z" style="fill:#ae7461"></path><path d="M261.85,278.53c-.18-.21-3.75,2.52-8,6.11s-7.51,6.68-7.33,6.9,3.76-2.52,8-6.12S262,278.75,261.85,278.53Z" style="fill:#6f4439"></path><path d="M256.89,273.62c-.15-.22-3.63,2-7.36,5.39s-6.26,6.66-6.06,6.84,3.05-2.73,6.74-6.08S257.07,273.86,256.89,273.62Z" style="fill:#6f4439"></path><path d="M252.05,268.81c-.17-.23-3,1.75-5.91,4.68s-5.19,5.43-5,5.63,2.78-2,5.72-4.9S252.22,269,252.05,268.81Z" style="fill:#6f4439"></path><path d="M267.32,288.2c.1-.07-.21-.74-1.22-1.28a5.64,5.64,0,0,0-4.25-.23,11.24,11.24,0,0,0-3.71,2c-.92.85-.65,1.79-.51,1.71s.18-.66,1-1.15a19.43,19.43,0,0,1,3.54-1.55,6.12,6.12,0,0,1,3.68-.09C266.73,287.87,267.21,288.31,267.32,288.2Z" style="fill:#6f4439"></path><path d="M135.85,225l13.62-.15s6.29-7.65,10.48-10.45,4.89-8.38,7.69-8,4.89,5.22,2.79,8-3.49,4.55-3.49,4.55,13.67-7.36,18.61-7.18c4.27.17,3,2.63,3,2.63a10.36,10.36,0,0,1,7.51,1.55c3.5,2.45.88,5.09.88,5.09s4.87-.1,5.92,3.39,0,4.3,0,4.3,5.59,1.05,3.49,5.94-19.9,10.48-30.39,11.53-38.61,5.34-38.61,5.34Z" style="fill:#ae7461"></path><path d="M60.39,255.65c25.4,4.66,50.89,6.26,77,1.65L135.85,225l-40.93-1.56-16.45,3.61" style="fill:#352323"></path><path d="M78.47,227.07l.28-.08.82-.21,3.22-.74,12.1-2.73h0l40.93,1.46h.22V225c.4,8.06.83,16.84,1.28,26,.1,2.16.21,4.31.31,6.32v.23l-.23,0A197,197,0,0,1,82.6,259c-6.94-.74-12.49-1.6-16.31-2.26-1.91-.32-3.38-.62-4.38-.8l-1.14-.23-.38-.09a2.89,2.89,0,0,1,.39,0l1.14.18,4.4.71c3.82.6,9.38,1.4,16.31,2.1a201,201,0,0,0,54.74-1.63l-.21.26c-.1-2-.21-4.15-.31-6.32-.44-9.12-.86-17.9-1.25-26l.24.24-40.92-1.65h0L82.83,226.2l-3.24.67-.83.16A1.58,1.58,0,0,1,78.47,227.07Z" style="fill:#263238"></path></g><g id="freepik--speech-bubble-1--inject-180"><path d="M136.88,121.31l-10.29-3.84a35,35,0,1,1,9.35-8.4v0Z" style="fill:#fff"></path><path d="M136.88,121.31s0-.28-.08-.82-.11-1.32-.2-2.35c-.17-2.07-.43-5.12-.76-9.08l.18.08h0a.1.1,0,0,1-.15,0,.11.11,0,0,1,0-.13,35.07,35.07,0,0,0,6.81-15.85,34.68,34.68,0,0,0,.43-5.38,39.68,39.68,0,0,0-.5-5.76,34.78,34.78,0,0,0-66.72-7,35.38,35.38,0,0,0-2.24,15.85,34.31,34.31,0,0,0,4.63,14.34,34.94,34.94,0,0,0,20.73,16l1.44.38a9.22,9.22,0,0,0,1.44.3l2.84.44a50,50,0,0,0,5.43.14,35,35,0,0,0,16.4-5.06.09.09,0,0,1,.09,0l7.6,2.91,2,.76.68.27-.65-.23-2-.7-7.72-2.81h.09a34.87,34.87,0,0,1-16.48,5.2,51,51,0,0,1-5.49-.11l-2.86-.43a10.51,10.51,0,0,1-1.46-.3l-1.46-.38a35.16,35.16,0,0,1-21-16.09,34.67,34.67,0,0,1-4.72-14.53,36,36,0,0,1,2.26-16.07A35,35,0,0,1,85.21,61a17.68,17.68,0,0,1,1.66-1.34l1.71-1.27,1.81-1.09a13.83,13.83,0,0,1,1.84-1l1.89-.91c.62-.32,1.3-.5,1.94-.76s1.29-.5,2-.69l2-.51a34.79,34.79,0,0,1,15.91-.14A35.16,35.16,0,0,1,143,82a39.14,39.14,0,0,1,.48,5.82A34,34,0,0,1,143,93.2a34.88,34.88,0,0,1-7,15.93l-.15-.15h0a.1.1,0,0,1,.15,0,.11.11,0,0,1,0,.06c.27,4,.49,7.07.63,9.16.06,1,.12,1.79.15,2.33S136.88,121.31,136.88,121.31Z" style="fill:#263238"></path><path d="M100.66,74.64a14.64,14.64,0,0,1,3.57-1.55l.73-3.53,6-.1.86,3.5a14.42,14.42,0,0,1,3.61,1.42l3-2,4.29,4.14-1.87,3.08a14.74,14.74,0,0,1,1.55,3.56l3.53.74.1,6-3.5.85a14.34,14.34,0,0,1-1.42,3.62l2,3-4.13,4.29-3.08-1.87a14.64,14.64,0,0,1-3.57,1.55l-.73,3.52-6,.11-.85-3.5a14.73,14.73,0,0,1-3.62-1.42l-3,2-4.29-4.14,1.87-3.08a14.4,14.4,0,0,1-1.55-3.56l-3.52-.73-.11-6,3.5-.86a14.66,14.66,0,0,1,1.42-3.61l-2-3,4.14-4.29,3.07,1.87Zm3.18,7.93a6.39,6.39,0,1,0,9-.16A6.4,6.4,0,0,0,103.84,82.57Z" style="fill:#455a64"></path></g></svg>
